<?xml version="1.0" encoding="UTF-8"?>
<svg height="16px" viewBox="0 0 16 16" width="16px" xmlns="http://www.w3.org/2000/svg">
    <path d="m 7.886719 0.00390625 c -2.109375 0.03124995 -4.945313 0.80078175 -4.898438 3.27734375 c 0.050781 2.589844 2.921875 1.664062 3.15625 2.71875 c 0.035157 -0.042969 0.085938 -0.082031 0.121094 -0.125 c 0.199219 -0.210938 0.394531 -0.386719 0.59375 -0.59375 c 0.3125 -0.351562 0.636719 -0.675781 0.964844 -1.03125 c 1.109375 -1.175781 1.15625 -1.25 3.800781 -3.25 c -1.035156 -0.617188 -2.261719 -0.9609375 -3.300781 -0.99609375 c -0.132813 -0.00390625 -0.292969 -0.00390625 -0.4375 0 z m 6.144531 0 c -1.796875 1.29687475 -4.203125 3.30078175 -6.113281 5.33203175 c -0.171875 0.183593 -0.339844 0.363281 -0.503907 0.546874 c -0.101562 0.109376 -0.210937 0.195313 -0.3125 0.308594 c -0.066406 0.078125 -0.128906 0.160156 -0.191406 0.238282 c -1.300781 1.4375 -2.582031 3.128906 -3.648437 4.683593 c -0.308594 -0.15625 -0.699219 -0.171875 -1.117188 0.101563 c -0.753906 0.496094 -0.597656 2.285156 -2.14843725 2.285156 c 0.14843725 0.601562 1.73437525 0.59375 2.80859425 0.324219 c 1.011718 -0.253907 1.324218 -1.140625 1.132812 -1.886719 c -0.03125 -0.105469 -0.078125 -0.210938 -0.144531 -0.320312 c 1.984375 -1.640626 3.386719 -3.003907 4.34375 -4.023438 c 0.242187 -0.246094 0.53125 -0.566406 0.851562 -0.925781 c 1.207031 -1.332031 2.925781 -3.433594 5.042969 -6.66406275 z m -8.042969 1.52734375 c 0.824219 0 1.492188 0.671875 1.492188 1.5 c 0 0.832031 -0.667969 1.5 -1.492188 1.5 c -0.828125 0 -1.5 -0.667969 -1.5 -1.5 c 0 -0.828125 0.671875 -1.5 1.5 -1.5 z m 7.265625 0.664062 c -1.417968 2.234376 -2.367187 3.554688 -3.367187 4.585938 c -0.640625 0.660156 -1.164063 1.3125 -1.625 1.78125 c -0.835938 0.890625 -1.9375 1.941406 -3.148438 3.09375 c 0.0625 1.46875 0.808594 2.746094 3.242188 3.21875 c 3.898437 0.757812 8.027343 -1.824219 7.613281 -7.0625 c -0.179688 -2.246094 -1.40625 -4.28125 -2.714844 -5.617188 z m 0.34375 3.804688 c 0.546875 0 0.996094 0.449219 0.996094 1 c 0 0.554688 -0.449219 1 -0.996094 1 s -0.996094 -0.445312 -0.996094 -1 c 0 -0.550781 0.449219 -1 0.996094 -1 z m -0.625 3 c 0.546875 0 0.996094 0.449219 0.996094 1 c 0 0.554688 -0.449219 1 -0.996094 1 s -0.996094 -0.445312 -0.996094 -1 c 0 -0.550781 0.449219 -1 0.996094 -1 z m -4.992187 2 c 0.550781 0 1 0.449219 1 1 s -0.449219 1 -1 1 c -0.546875 0 -0.996094 -0.449219 -0.996094 -1 s 0.449219 -1 0.996094 -1 z m 2.996093 0 c 0.546876 0 1 0.449219 1 1 s -0.453124 1 -1 1 c -0.546874 0 -0.996093 -0.449219 -0.996093 -1 s 0.449219 -1 0.996093 -1 z m 0 0" fill="#2e3436"/>
</svg>
