<?xml version="1.0" encoding="UTF-8"?>
<svg height="16px" viewBox="0 0 16 16" width="16px" xmlns="http://www.w3.org/2000/svg">
    <g fill="#2e3436">
        <path d="m 0 11 v 2.5 c 0 1.378906 1.121094 2.5 2.5 2.5 h 0.5 c 1.105469 0 2 -0.894531 2 -2 s 0.894531 -2 2 -2 s 2 0.894531 2 2 c 0.136719 1.242188 1.257812 2.136719 2.5 2 c 1.378906 0 2.5 -1.117188 2.5 -2.5 v -2.5 c 0 -2.210938 -1.789062 -4 -4 -4 h -6 c -2.210938 0 -4 1.789062 -4 4 z m 3.25 -2 h 0.5 c 0.136719 0 0.25 0.113281 0.25 0.25 v 0.75 h 0.75 c 0.136719 0 0.25 0.113281 0.25 0.25 v 0.5 c 0 0.140625 -0.113281 0.25 -0.25 0.25 h -0.75 v 0.75 c 0 0.140625 -0.113281 0.25 -0.25 0.25 h -0.5 c -0.140625 0 -0.25 -0.109375 -0.25 -0.25 v -0.75 h -0.75 c -0.140625 0 -0.25 -0.109375 -0.25 -0.25 v -0.5 c 0 -0.136719 0.109375 -0.25 0.25 -0.25 h 0.75 v -0.75 c 0 -0.136719 0.109375 -0.25 0.25 -0.25 z m 6.25 0.75 c 0.414062 0 0.75 0.335938 0.75 0.75 s -0.335938 0.75 -0.75 0.75 s -0.75 -0.335938 -0.75 -0.75 s 0.335938 -0.75 0.75 -0.75 z m 2 1 c 0.414062 0 0.75 0.335938 0.75 0.75 s -0.335938 0.75 -0.75 0.75 s -0.75 -0.335938 -0.75 -0.75 s 0.335938 -0.75 0.75 -0.75 z m 0 0"/>
        <path d="m 2 3.015625 c 0.007812 1.65625 1.359375 2.992187 3.015625 2.984375 h 7.96875 c 1.664063 0 3.015625 -1.351562 3.015625 -3.015625 c -0.007812 -1.65625 -1.359375 -2.9921875 -3.015625 -2.984375 h -7.96875 c -1.664063 0 -3.015625 1.351562 -3.015625 3.015625 z m 3.21875 -2.015625 h 0.5 c 0.136719 0 0.25 0.113281 0.25 0.25 v 0.75 h 0.75 c 0.136719 0 0.25 0.113281 0.25 0.25 v 0.5 c 0 0.140625 -0.113281 0.25 -0.25 0.25 h -0.75 v 0.75 c 0 0.140625 -0.113281 0.25 -0.25 0.25 h -0.5 c -0.140625 0 -0.25 -0.109375 -0.25 -0.25 v -0.75 h -0.75 c -0.140625 0 -0.25 -0.109375 -0.25 -0.25 v -0.5 c 0 -0.136719 0.109375 -0.25 0.25 -0.25 h 0.75 v -0.75 c 0 -0.136719 0.109375 -0.25 0.25 -0.25 z m 6.25 0.75 c 0.414062 0 0.75 0.335938 0.75 0.75 s -0.335938 0.75 -0.75 0.75 s -0.75 -0.335938 -0.75 -0.75 s 0.335938 -0.75 0.75 -0.75 z m 2 0.03125 c 0.414062 0 0.75 0.335938 0.75 0.75 s -0.335938 0.75 -0.75 0.75 s -0.75 -0.335938 -0.75 -0.75 s 0.335938 -0.75 0.75 -0.75 z m 0 0"/>
    </g>
</svg>
